<?xml version="1.0" encoding="UTF-8"?>
<!DOCTYPE svg PUBLIC "-//W3C//DTD SVG 1.1//EN" "http://www.w3.org/Graphics/SVG/1.1/DTD/svg11.dtd">
<svg version="1.1" xmlns="http://www.w3.org/2000/svg" xmlns:xlink="http://www.w3.org/1999/xlink" x="0" y="0" width="944" height="704" viewBox="0, 0, 944, 704">
  <g id="Layer_1">
    <g>
      <path d="M329.275,416 C318.233,424.964 309.634,433.717 302.465,444.892 C295.07,456.421 294.846,481.556 297.809,482.245 C304.412,483.78 328.454,464.709 339.579,459.517 C355.704,451.992 368.9,444.84 395.316,444.892" fill="#E9F2F9"/>
      <path d="M329.275,416 C318.233,424.964 309.634,433.717 302.465,444.892 C295.07,456.421 294.846,481.556 297.809,482.245 C304.412,483.78 328.454,464.709 339.579,459.517 C355.704,451.992 368.9,444.84 395.316,444.892" fill-opacity="0" stroke="#1B325F" stroke-width="12" stroke-linecap="round" stroke-linejoin="round"/>
    </g>
    <g>
      <path d="M551.683,367.969 C563.105,392.686 563.246,391.665 580.94,410 C587.689,416.994 601.764,449.864 598.643,454.805 C594.591,461.22 534.21,422.417 520.659,425.189" fill="#E9F2F9"/>
      <path d="M551.683,367.969 C563.105,392.686 563.246,391.665 580.94,410 C587.689,416.994 601.764,449.864 598.643,454.805 C594.591,461.22 534.21,422.417 520.659,425.189" fill-opacity="0" stroke="#1B325F" stroke-width="12" stroke-linecap="round" stroke-linejoin="round"/>
    </g>
    <path d="M387.404,301.802 C367,309.655 330.622,345.347 325.243,366.864 C302.845,456.456 443.958,452.293 496.243,434.864 C588.919,403.972 543.121,326.857 505.243,308.364 C467.364,289.872 421.817,288.557 387.404,301.802 z" fill="#E9F2F9"/>
    <g>
      <path d="M367,297.462 C385.687,237.018 354.128,216.745 367,188.964 C372.523,177.043 451.011,246.404 461,293.551" fill="#E9F2F9"/>
      <path d="M367,297.462 C385.687,237.018 354.128,216.745 367,188.964 C372.523,177.043 451.011,246.404 461,293.551" fill-opacity="0" stroke="#1B325F" stroke-width="12" stroke-linecap="round" stroke-linejoin="round"/>
    </g>
    <path d="M339.155,413.864 C332.323,401.363 396.342,374.26 435.599,371.429 C474.1,368.832 537.893,379.342 541.101,396.764 C544.143,413.282 504.373,429.267 492.026,432.201 C472.968,436.731 431.431,443.148 394.816,437.864 C394.816,437.864 348.026,430.096 339.155,413.864 z" fill="#FFFFFF"/>
    <g>
      <path d="M244.352,355.246 C222.953,349.239 195.239,356.193 200.484,366.683 C204.286,374.286 205.005,370.873 210.326,378.854" fill="#E9F2F9"/>
      <path d="M244.352,355.246 C222.953,349.239 195.239,356.193 200.484,366.683 C204.286,374.286 205.005,370.873 210.326,378.854" fill-opacity="0" stroke="#1B325F" stroke-width="12" stroke-linecap="round" stroke-linejoin="round"/>
    </g>
    <g>
      <path d="M415.777,293.551 C373.862,293.551 306.177,317.53 257.013,349.915 C220.545,373.937 211.284,382.807 200.328,395.329 C195.441,400.913 176.884,422.534 181.154,421.155 C214.284,410.459 296.03,403.744 322.853,419.981" fill="#E9F2F9"/>
      <path d="M415.777,293.551 C373.862,293.551 306.177,317.53 257.013,349.915 C220.545,373.937 211.284,382.807 200.328,395.329 C195.441,400.913 176.884,422.534 181.154,421.155 C214.284,410.459 296.03,403.744 322.853,419.981" fill-opacity="0" stroke="#1B325F" stroke-width="12" stroke-linecap="round" stroke-linejoin="round"/>
    </g>
    <path d="M438.1,287.493 C462.311,287.685 485.803,293.119 507.655,303.422 C529.743,314.205 550.485,340.381 555.113,365.986 C560.94,398.229 542.354,425.291 497.982,440.082 C467.216,450.337 418.074,453.838 381.634,446.385 C359.631,441.885 342.268,433.681 331.098,421.445 C318.217,407.335 314.159,388.52 319.907,365.53 C325.495,343.177 362.259,305.586 385.428,296.669 C398.505,291.785 412.344,288.661 426.303,287.869 C430.231,287.647 434.168,287.618 438.1,287.493 z M438.171,298.493 C421.482,298.346 405.029,301.182 389.38,306.934 C369.383,314.631 335.243,349.538 330.578,368.198 C321.36,405.072 341.293,426.906 383.839,435.608 C418.344,442.666 465.531,439.304 494.503,429.647 C533.957,416.495 549.083,394.471 544.288,367.943 C540.301,345.878 521.847,322.591 502.83,313.307 C487.184,305.722 470.215,301.061 452.917,299.289 C448.02,298.787 443.086,298.758 438.171,298.493 z" fill="#1B325F"/>
    <path d="M372.547,341.387 C410.047,354.156 424.356,351.523 377.252,367.969" fill-opacity="0" stroke="#1B325F" stroke-width="12" stroke-linecap="round" stroke-linejoin="round"/>
    <path d="M488.554,334.629 C437.496,353.401 453.639,354.527 495.95,356.029" fill-opacity="0" stroke="#1B325F" stroke-width="11" stroke-linecap="round" stroke-linejoin="round"/>
    <path d="M363.816,389.156 C362.032,392.929 359.848,396.6 357.816,400.156" fill-opacity="0" stroke="#F26C4F" stroke-width="6" stroke-linecap="round" stroke-linejoin="round"/>
    <path d="M375.206,393.906 C372.829,396.381 371.626,399.781 370.206,402.906" fill-opacity="0" stroke="#F26C4F" stroke-width="6" stroke-linecap="round" stroke-linejoin="round"/>
    <path d="M383.906,399.244 C383.073,400.744 382.239,402.244 381.406,403.744" fill-opacity="0" stroke="#F26C4F" stroke-width="6" stroke-linecap="round" stroke-linejoin="round"/>
    <path d="M492.526,387.425 C488.306,393.739 491.282,391.567 486.298,397.264" fill-opacity="0" stroke="#F26C4F" stroke-width="6" stroke-linecap="round" stroke-linejoin="round"/>
    <path d="M506.918,385.988 C503.37,392.266 502.917,393.728 497.944,398.701" fill-opacity="0" stroke="#F26C4F" stroke-width="6" stroke-linecap="round" stroke-linejoin="round"/>
    <path d="M518.09,385.925 C515.431,392.175 512.965,395.175 508.95,398.764" fill-opacity="0" stroke="#FF8080" stroke-width="6" stroke-linecap="round" stroke-linejoin="round"/>
    <path d="M404.5,409.764 C418.766,394.205 413.892,412.09 421.5,414.264 C425.94,415.532 430.514,404.386 435,403.264 C439.895,402.04 438.066,410.738 441.803,411.805 C445.378,412.827 449.88,401.407 453.211,403.072 C457.142,405.037 455.4,411.264 461,411.264" fill-opacity="0" stroke="#1B325F" stroke-width="8.5" stroke-linecap="round" stroke-linejoin="round"/>
    <g>
      <path d="M139.903,491.876 C168.702,475.008 185.346,451.569 179.279,421.09 C173.014,389.62 158.417,372.771 114.189,353.023 C114.189,353.023 149.154,419.078 149.777,427.695 C150.294,434.839 139.903,491.876 139.903,491.876 z" fill="#E9F2F9"/>
      <path d="M139.903,491.876 C168.702,475.008 185.346,451.569 179.279,421.09 C173.014,389.62 158.417,372.771 114.189,353.023 C114.189,353.023 149.154,419.078 149.777,427.695 C150.294,434.839 139.903,491.876 139.903,491.876 z" fill-opacity="0" stroke="#1B325F" stroke-width="12" stroke-linecap="round" stroke-linejoin="round"/>
    </g>
    <path d="M373.245,390.164 L375.082,389.199 L378.761,387.36 L382.476,385.627 L386.234,383.996 L390.035,382.465 L393.878,381.036 L397.763,379.707 L401.688,378.477 L405.654,377.348 L409.659,376.317 L413.702,375.386 L417.783,374.553 L421.902,373.818 L426.057,373.181 L430.248,372.642 L434.474,372.2 L438.734,371.855 L443.028,371.606 L447.354,371.454 L451.713,371.398 L456.104,371.438 L460.524,371.573 L464.975,371.803 L469.455,372.127 L473.964,372.546 L478.499,373.059 L483.062,373.666 L487.651,374.366 L492.265,375.159 L496.904,376.045 L501.567,377.024 L506.252,378.094 L508.597,378.663 L508.597,378.663 C509.402,378.858 510.213,378.363 510.408,377.558 C510.603,376.753 510.109,375.942 509.304,375.747 L506.92,375.17 L502.183,374.088 L497.467,373.099 L492.773,372.203 L488.103,371.4 L483.458,370.692 L478.836,370.078 L474.241,369.559 L469.672,369.135 L465.13,368.807 L460.616,368.574 L456.13,368.438 L451.674,368.399 L447.249,368.456 L442.854,368.612 L438.491,368.865 L434.161,369.216 L429.865,369.666 L425.602,370.216 L421.375,370.865 L417.183,371.613 L413.028,372.462 L408.911,373.412 L404.831,374.462 L400.791,375.615 L396.791,376.868 L392.832,378.224 L388.914,379.683 L385.039,381.244 L381.207,382.908 L377.42,384.676 L373.686,386.544 L371.849,387.509 C371.849,387.509 371.849,387.509 371.849,387.509 C371.116,387.894 370.834,388.801 371.219,389.535 C371.605,390.268 372.512,390.55 373.245,390.164 L373.245,390.164" fill="#9CC4E4"/>
    <path d="M198.751,496.065 L198.803,499.095 L198.831,505.112 L198.794,511.139 L198.732,517.193 L198.685,523.272 L198.697,529.373 L198.808,535.495 L198.983,540.109 L199.154,543.197 L199.258,544.752 L199.258,544.752 C199.398,546.818 201.185,548.381 203.252,548.242 C205.318,548.102 206.881,546.315 206.742,544.248 C206.742,544.248 206.742,544.248 206.742,544.248 L206.643,542.781 L206.478,539.823 L206.307,535.357 L206.197,529.359 L206.185,523.329 L206.231,517.27 L206.294,511.185 L206.331,505.076 L206.302,498.965 L206.249,495.935 C206.249,495.935 206.249,495.935 206.249,495.935 C206.214,493.864 204.506,492.215 202.435,492.251 C200.364,492.286 198.715,493.994 198.751,496.065 L198.751,496.065" fill="#1B325F"/>
    <path d="M204.813,497.661 L205.323,497.548 L206.155,497.412 L206.926,497.344 L207.701,497.327 L208.481,497.361 L209.267,497.443 L210.06,497.575 L210.859,497.756 L211.665,497.985 L212.477,498.263 L213.293,498.588 L214.112,498.961 L214.932,499.381 L215.752,499.846 L216.57,500.356 L217.383,500.908 L218.19,501.503 L218.989,502.137 L219.779,502.81 L220.556,503.519 L221.32,504.262 L222.069,505.039 L222.801,505.845 L223.515,506.68 L224.208,507.542 L224.88,508.428 L225.528,509.336 L226.152,510.264 L226.75,511.209 L227.32,512.169 L227.862,513.143 L228.373,514.128 L228.853,515.12 L229.301,516.119 L229.715,517.122 L230.093,518.126 L230.436,519.128 L230.742,520.127 L231.01,521.119 L231.239,522.103 L231.428,523.075 L231.577,524.033 L231.686,524.975 L231.753,525.898 L231.778,526.799 L231.763,527.676 L231.705,528.527 L231.607,529.35 L231.467,530.142 L231.288,530.903 L231.068,531.631 L230.809,532.326 L230.511,532.987 L230.174,533.616 L229.798,534.213 L229.38,534.78 L228.919,535.317 L228.412,535.827 L227.855,536.311 L227.244,536.768 L226.575,537.199 L225.843,537.603 L225.043,537.978 L224.171,538.321 L223.761,538.461 L223.87,538.424 L223.187,538.64 L221.973,538.961 L220.787,539.204 L219.571,539.394 L218.324,539.536 L217.047,539.638 L215.051,539.731 L212.321,539.779 L209.513,539.804 L206.614,539.88 L204.361,540.021 L202.813,540.177 L202.008,540.282 L202.008,540.282 C199.955,540.554 198.511,542.438 198.782,544.492 C199.054,546.545 200.938,547.989 202.992,547.718 L203.582,547.638 L204.837,547.506 L206.812,547.378 L209.58,547.304 L212.457,547.278 L215.408,547.223 L217.657,547.113 L219.196,546.986 L220.753,546.8 L222.326,546.545 L223.911,546.206 L225.447,545.792 L226.13,545.576 L226.13,545.576 C226.167,545.564 226.203,545.552 226.239,545.539 L226.239,545.539 L226.975,545.277 L228.29,544.739 L229.537,544.131 L230.714,543.454 L231.819,542.711 L232.85,541.905 L233.804,541.04 L234.68,540.119 L235.476,539.149 L236.192,538.133 L236.827,537.079 L237.384,535.991 L237.863,534.874 L238.268,533.732 L238.6,532.57 L238.863,531.391 L239.059,530.197 L239.191,528.992 L239.262,527.778 L239.274,526.556 L239.231,525.328 L239.134,524.095 L238.985,522.86 L238.786,521.623 L238.54,520.386 L238.247,519.15 L237.909,517.918 L237.529,516.689 L237.106,515.466 L236.643,514.25 L236.141,513.043 L235.601,511.846 L235.024,510.661 L234.411,509.489 L233.764,508.332 L233.083,507.192 L232.37,506.07 L231.625,504.968 L230.85,503.888 L230.044,502.832 L229.21,501.8 L228.347,500.796 L227.457,499.822 L226.541,498.878 L225.598,497.967 L224.63,497.09 L223.638,496.251 L222.621,495.451 L221.58,494.693 L220.515,493.978 L219.428,493.309 L218.319,492.689 L217.187,492.121 L216.034,491.607 L214.861,491.152 L213.667,490.757 L212.455,490.428 L211.226,490.166 L209.981,489.978 L208.724,489.865 L207.457,489.831 L206.184,489.881 L204.908,490.017 L203.697,490.226 L203.187,490.339 C201.165,490.788 199.89,492.791 200.339,494.813 C200.788,496.835 202.791,498.11 204.813,497.661 L204.813,497.661" fill="#1B325F"/>
    <path d="M253.235,510.655 L252.744,511.255 L251.758,512.542 L250.843,513.858 L250.021,515.172 L249.293,516.483 L248.658,517.793 L248.114,519.1 L247.662,520.403 L247.302,521.702 L247.034,522.993 L246.856,524.275 L246.769,525.545 L246.771,526.799 L246.86,528.033 L247.034,529.242 L247.291,530.424 L247.625,531.575 L248.034,532.691 L248.512,533.77 L249.055,534.811 L249.658,535.811 L250.317,536.77 L251.028,537.688 L251.786,538.564 L252.589,539.399 L253.431,540.193 L254.31,540.946 L255.224,541.658 L256.168,542.33 L257.141,542.963 L258.14,543.556 L259.163,544.109 L260.207,544.623 L261.27,545.098 L262.35,545.534 L263.444,545.93 L264.552,546.286 L265.67,546.602 L266.796,546.878 L267.929,547.112 L269.067,547.305 L270.207,547.456 L271.348,547.564 L272.489,547.628 L273.626,547.648 L274.758,547.621 L275.883,547.548 L276.999,547.426 L278.105,547.255 L279.198,547.031 L280.275,546.755 L281.335,546.423 L282.374,546.034 L283.39,545.585 L284.378,545.074 L285.335,544.499 L286.257,543.858 L287.137,543.149 L287.972,542.373 L288.753,541.528 L289.477,540.616 L290.136,539.639 L290.725,538.598 L291.24,537.497 L291.495,536.86 L291.495,536.86 C291.511,536.818 291.527,536.775 291.542,536.732 L291.542,536.732 L291.64,536.449 L291.868,535.686 L292.062,534.85 L292.205,534.007 L292.299,533.158 L292.347,532.305 L292.352,531.45 L292.318,530.592 L292.246,529.733 L292.138,528.873 L291.92,527.617 L291.52,525.924 L290.998,524.205 L290.369,522.497 L289.641,520.807 L288.82,519.14 L287.912,517.504 L286.923,515.907 L285.858,514.356 L284.722,512.859 L283.518,511.426 L282.25,510.065 L280.922,508.786 L279.535,507.599 L278.091,506.513 L276.591,505.541 L275.033,504.696 L273.788,504.136 L272.92,503.808 L272.076,503.539 L271.217,503.314 L270.345,503.138 L269.459,503.014 L268.562,502.944 L267.655,502.934 L266.742,502.985 L265.826,503.101 L264.911,503.284 L264.002,503.536 L263.102,503.859 L262.218,504.252 L261.353,504.714 L260.511,505.243 L259.694,505.84 L258.905,506.501 L258.146,507.224 L257.415,508.009 L257.027,508.464 L257.027,508.464 C255.693,510.048 255.894,512.414 257.478,513.749 C259.061,515.083 261.427,514.882 262.762,513.298 L262.939,513.083 L263.356,512.619 L263.767,512.212 L264.17,511.858 L264.565,511.554 L264.952,511.294 L265.333,511.074 L265.709,510.891 L266.085,510.741 L266.462,510.622 L266.843,510.531 L267.233,510.469 L267.633,510.434 L268.045,510.427 L268.471,510.449 L268.912,510.5 L269.367,510.582 L269.835,510.696 L270.317,510.842 L270.77,511.002 L271.499,511.311 L272.546,511.857 L273.61,512.527 L274.677,513.313 L275.736,514.205 L276.776,515.192 L277.787,516.264 L278.759,517.409 L279.685,518.615 L280.555,519.869 L281.363,521.159 L282.101,522.472 L282.762,523.794 L283.34,525.113 L283.83,526.412 L284.228,527.677 L284.535,528.925 L284.7,529.833 L284.775,530.391 L284.825,530.928 L284.852,531.441 L284.856,531.928 L284.838,532.387 L284.8,532.817 L284.743,533.216 L284.668,533.585 L284.557,533.985 L284.458,534.268 L284.505,534.14 L284.418,534.382 L284.164,534.964 L283.877,535.506 L283.557,536.011 L283.203,536.484 L282.814,536.928 L282.389,537.344 L281.928,537.733 L281.429,538.096 L280.892,538.433 L280.317,538.743 L279.706,539.024 L279.06,539.276 L278.38,539.498 L277.669,539.689 L276.929,539.847 L276.163,539.973 L275.373,540.065 L274.563,540.124 L273.735,540.148 L272.892,540.139 L272.038,540.096 L271.175,540.019 L270.306,539.908 L269.435,539.765 L268.563,539.589 L267.695,539.381 L266.834,539.142 L265.981,538.872 L265.14,538.572 L264.314,538.244 L263.505,537.887 L262.716,537.504 L261.951,537.096 L261.211,536.663 L260.498,536.207 L259.816,535.729 L259.167,535.231 L258.552,534.714 L257.974,534.18 L257.434,533.63 L256.934,533.065 L256.474,532.488 L256.057,531.898 L255.681,531.298 L255.348,530.686 L255.058,530.063 L254.811,529.428 L254.608,528.779 L254.449,528.115 L254.336,527.434 L254.27,526.732 L254.254,526.006 L254.292,525.255 L254.386,524.475 L254.541,523.665 L254.761,522.823 L255.052,521.949 L255.418,521.041 L255.863,520.101 L256.392,519.129 L257.01,518.126 L257.719,517.094 L258.55,516.002 L259.041,515.402 C260.352,513.798 260.115,511.436 258.511,510.125 C256.908,508.814 254.545,509.051 253.235,510.655 L253.235,510.655" fill="#1B325F"/>
    <path d="M300.631,514.192 L300.58,514.256 L300.16,514.889 L299.841,515.566 L299.643,516.154 L299.505,516.697 L299.401,517.225 L299.319,517.753 L299.251,518.292 L299.195,518.848 L299.149,519.425 L299.094,520.318 L299.043,521.597 L299.013,522.973 L299.001,524.422 L299.005,525.935 L299.022,527.498 L299.05,529.096 L299.107,531.526 L299.198,534.758 L299.268,537.106 L299.312,538.602 L299.35,540.024 L299.381,541.356 L299.402,542.581 L299.412,543.678 L299.411,544.399 L299.405,544.823 L299.396,545.207 L299.383,545.54 L299.367,545.814 L299.349,546.021 L299.333,546.143 L299.326,546.151 L299.355,545.984 L299.519,545.494 L300.32,544.352 L303.184,543.353 L305.335,544.302 L305.892,544.964 L306.027,545.197 L306.036,545.194 L305.991,545.037 L305.917,544.764 L305.824,544.392 L305.715,543.929 L305.658,543.676 L305.658,543.676 C305.203,541.655 303.196,540.386 301.176,540.842 C299.155,541.297 297.886,543.304 298.342,545.324 L298.415,545.651 L298.554,546.236 L298.69,546.768 L298.829,547.261 L298.979,547.734 L299.167,548.229 L299.467,548.833 L300.172,549.742 L302.457,550.818 L305.442,549.831 L306.35,548.589 L306.608,547.891 L306.719,547.413 L306.782,547.01 L306.825,546.625 L306.855,546.233 L306.878,545.82 L306.894,545.383 L306.905,544.916 L306.911,544.413 L306.912,543.611 L306.901,542.449 L306.879,541.181 L306.847,539.821 L306.808,538.383 L306.765,536.881 L306.695,534.547 L306.604,531.352 L306.549,528.966 L306.522,527.415 L306.505,525.914 L306.501,524.48 L306.511,523.133 L306.537,521.893 L306.581,520.77 L306.625,520.021 L306.659,519.585 L306.696,519.2 L306.734,518.874 L306.771,518.616 L306.8,518.44 L306.809,518.367 L306.773,518.43 L306.633,518.677 L306.406,518.978 L306.458,518.915 C307.762,517.306 307.515,514.944 305.906,513.64 C304.297,512.336 301.935,512.583 300.631,514.192 L300.631,514.192" fill="#1B325F"/>
    <path d="M304.188,520.522 L304.757,521.411 L305.884,523.147 L306.982,524.807 L308.049,526.387 L309.085,527.887 L310.091,529.309 L311.068,530.654 L312.016,531.924 L312.937,533.119 L313.831,534.243 L314.7,535.295 L315.545,536.277 L316.367,537.192 L317.168,538.041 L317.951,538.826 L318.717,539.548 L319.471,540.209 L320.216,540.811 L320.957,541.356 L321.7,541.843 L322.453,542.272 L323.224,542.642 L324.022,542.947 L324.858,543.177 L325.735,543.317 L326.651,543.347 L327.591,543.247 L328.525,543.004 L329.414,542.62 L330.224,542.114 L330.934,541.516 L331.54,540.856 L332.051,540.155 L332.479,539.428 L332.839,538.68 L333.144,537.914 L333.403,537.129 L333.623,536.322 L333.811,535.492 L333.97,534.637 L334.104,533.755 L334.215,532.844 L334.305,531.905 L334.375,530.936 L334.427,529.937 L334.461,528.907 L334.479,527.848 L334.481,526.759 L334.468,525.64 L334.441,524.493 L334.399,523.316 L334.345,522.112 L334.277,520.881 L334.197,519.624 L334.105,518.341 L334.002,517.033 L333.826,515.032 L333.557,512.282 L333.249,509.444 L332.906,506.53 L332.722,505.04 L332.722,505.04 C332.468,502.984 330.595,501.524 328.54,501.778 C326.484,502.032 325.024,503.905 325.278,505.96 L325.457,507.406 L325.792,510.254 L326.093,513.015 L326.355,515.686 L326.525,517.624 L326.624,518.878 L326.712,520.101 L326.788,521.294 L326.853,522.455 L326.904,523.582 L326.943,524.674 L326.969,525.73 L326.981,526.747 L326.98,527.725 L326.965,528.661 L326.937,529.554 L326.894,530.401 L326.838,531.201 L326.769,531.95 L326.687,532.647 L326.593,533.287 L326.489,533.867 L326.378,534.385 L326.262,534.835 L326.147,535.214 L326.039,535.517 L325.947,535.741 L325.883,535.887 L325.86,535.958 L325.89,535.966 L325.981,535.93 L326.128,535.878 L326.31,535.839 L326.491,535.829 L326.633,535.847 L326.703,535.88 L326.686,535.903 L326.579,535.896 L326.385,535.841 L326.113,535.726 L325.772,535.544 L325.369,535.29 L324.911,534.963 L324.403,534.559 L323.85,534.079 L323.253,533.522 L322.617,532.888 L321.942,532.176 L321.23,531.385 L320.481,530.517 L319.697,529.569 L318.878,528.542 L318.024,527.434 L317.136,526.246 L316.213,524.976 L315.255,523.624 L314.263,522.188 L313.237,520.669 L312.175,519.065 L311.074,517.368 L310.504,516.478 C309.388,514.734 307.069,514.225 305.324,515.342 C303.58,516.458 303.071,518.777 304.188,520.522 L304.188,520.522" fill="#1B325F"/>
    <path d="M352.995,509.116 L353.329,509.024 L354.01,508.85 L354.782,508.667 L355.655,508.472 L356.615,508.268 L357.653,508.058 L358.758,507.841 L359.922,507.62 L361.763,507.283 L364.341,506.829 L367,506.379 L369.68,505.938 L372.32,505.517 L374.233,505.217 L375.462,505.027 L376.648,504.846 L377.78,504.675 L378.852,504.515 L379.854,504.366 L380.78,504.23 L381.621,504.109 L382.369,504.001 L383.017,503.91 L383.555,503.836 L383.974,503.779 L384.261,503.742 L384.364,503.731 L384.332,503.735 L384.166,503.746 L384.166,503.746 C386.235,503.655 387.838,501.904 387.746,499.834 C387.655,497.765 385.904,496.162 383.834,496.254 C383.834,496.254 383.834,496.254 383.834,496.254 L383.639,496.267 L383.495,496.281 L383.305,496.304 L382.972,496.346 L382.526,496.406 L381.969,496.484 L381.306,496.577 L380.545,496.686 L379.692,496.81 L378.755,496.947 L377.742,497.097 L376.659,497.259 L375.515,497.432 L374.318,497.615 L373.073,497.807 L371.136,498.111 L368.465,498.538 L365.746,498.984 L363.04,499.443 L360.411,499.906 L358.524,500.252 L357.316,500.481 L356.159,500.708 L355.058,500.932 L354.02,501.153 L353.048,501.37 L352.147,501.585 L351.34,501.792 L351.005,501.884 C349.009,502.434 347.835,504.498 348.384,506.495 C348.934,508.491 350.998,509.665 352.995,509.116 L352.995,509.116" fill="#1B325F"/>
    <path d="M362.504,502.174 L362.454,502.745 L362.358,503.952 L362.27,505.207 L362.189,506.496 L362.08,508.484 L361.95,511.238 L361.83,514.089 L361.714,517.01 L361.593,519.975 L361.46,522.963 L361.308,525.948 L361.128,528.906 L360.915,531.811 L360.661,534.637 L360.441,536.678 L360.279,537.995 L360.102,539.286 L359.911,540.538 L359.705,541.747 L359.484,542.91 L359.247,544.022 L358.995,545.079 L358.87,545.56 L358.87,545.56 C358.351,547.565 359.555,549.611 361.56,550.13 C363.565,550.65 365.611,549.445 366.13,547.44 C366.13,547.44 366.13,547.44 366.13,547.44 L366.292,546.812 L366.584,545.577 L366.853,544.307 L367.099,543.003 L367.325,541.667 L367.533,540.301 L367.723,538.909 L367.898,537.481 L368.131,535.307 L368.395,532.359 L368.615,529.359 L368.798,526.331 L368.953,523.296 L369.087,520.281 L369.208,517.308 L369.324,514.404 L369.441,511.592 L369.569,508.896 L369.675,506.965 L369.752,505.732 L369.835,504.546 L369.926,503.398 L369.976,502.826 C370.156,500.763 368.629,498.944 366.566,498.764 C364.503,498.584 362.684,500.111 362.504,502.174 L362.504,502.174" fill="#1B325F"/>
    <path d="M336.538,491.442 L337.788,494.442 L339.038,497.442 L339.038,497.442 C339.072,497.522 339.107,497.6 339.146,497.677 L339.146,497.677 L339.646,498.677 L340.146,499.677 L340.146,499.677 C341.072,501.529 343.325,502.28 345.177,501.354 C347.029,500.428 347.78,498.175 346.854,496.323 C346.854,496.323 346.854,496.323 346.854,496.323 L346.354,495.323 L345.854,494.323 L345.962,494.558 L344.712,491.558 L343.462,488.558 C342.665,486.646 340.469,485.742 338.558,486.538 C336.646,487.335 335.742,489.531 336.538,491.442 L336.538,491.442" fill="#1B325F"/>
    <path d="M427.406,505.476 L427.403,505.983 L427.408,507.087 L427.43,508.255 L427.467,509.469 L427.518,510.726 L427.583,512.024 L427.661,513.358 L427.751,514.727 L427.906,516.83 L428.149,519.723 L428.428,522.693 L428.737,525.703 L429.07,528.723 L429.423,531.723 L429.789,534.672 L430.163,537.538 L430.539,540.292 L430.82,542.268 L431.006,543.535 L431.188,544.753 L431.368,545.923 L431.544,547.04 L431.716,548.1 L431.8,548.612 L431.8,548.612 C432.138,550.655 434.069,552.038 436.112,551.7 C438.155,551.362 439.538,549.431 439.2,547.388 C439.2,547.388 439.2,547.388 439.2,547.388 L439.119,546.901 L438.953,545.872 L438.781,544.784 L438.605,543.641 L438.426,542.448 L438.245,541.211 L437.97,539.276 L437.6,536.568 L437.232,533.748 L436.872,530.848 L436.525,527.9 L436.198,524.937 L435.895,521.991 L435.623,519.095 L435.386,516.277 L435.234,514.235 L435.148,512.922 L435.074,511.648 L435.012,510.419 L434.963,509.239 L434.929,508.114 L434.908,507.048 L434.903,506.032 L434.906,505.524 C434.906,505.524 434.906,505.524 434.906,505.524 C434.92,503.453 433.252,501.764 431.181,501.75 C429.11,501.737 427.42,503.405 427.406,505.476 L427.406,505.476" fill="#1B325F"/>
    <path d="M426.23,507.015 L427.033,506.421 L428.527,505.392 L429.959,504.499 L431.359,503.714 L432.726,503.034 L434.059,502.454 L435.356,501.969 L436.617,501.574 L437.842,501.265 L439.03,501.036 L440.18,500.885 L441.294,500.805 L442.371,500.794 L443.413,500.846 L444.418,500.959 L445.389,501.129 L446.325,501.353 L447.227,501.628 L448.095,501.951 L448.929,502.32 L449.728,502.732 L450.492,503.183 L451.22,503.673 L451.911,504.198 L452.565,504.755 L453.179,505.342 L453.753,505.955 L454.286,506.591 L454.776,507.247 L455.222,507.92 L455.623,508.605 L455.978,509.3 L456.285,509.999 L456.544,510.7 L456.755,511.398 L456.918,512.09 L457.031,512.771 L457.096,513.437 L457.114,514.085 L457.084,514.713 L457.009,515.316 L456.89,515.895 L456.727,516.447 L456.522,516.972 L456.274,517.472 L455.983,517.947 L455.647,518.399 L455.261,518.831 L454.821,519.244 L454.322,519.638 L453.756,520.012 L453.117,520.364 L452.398,520.691 L451.594,520.988 L450.7,521.249 L449.998,521.41 L449.508,521.504 L448.963,521.592 L448.394,521.667 L447.8,521.727 L447.18,521.773 L446.535,521.804 L445.864,521.818 L445.168,521.816 L444.445,521.796 L443.697,521.757 L442.923,521.7 L442.123,521.623 L441.297,521.526 L440.444,521.409 L439.565,521.27 L438.66,521.109 L437.729,520.927 L437.27,520.83 L437.27,520.83 C435.243,520.405 433.255,521.703 432.83,523.73 C432.405,525.757 433.703,527.745 435.73,528.17 C435.73,528.17 435.73,528.17 435.73,528.17 L436.288,528.287 L437.355,528.495 L438.401,528.679 L439.427,528.839 L440.431,528.976 L441.415,529.09 L442.379,529.18 L443.323,529.248 L444.248,529.293 L445.153,529.316 L446.039,529.316 L446.905,529.295 L447.753,529.251 L448.583,529.186 L449.393,529.1 L450.186,528.991 L450.959,528.862 L451.745,528.704 L452.875,528.426 L454.278,527.991 L455.605,527.471 L456.852,526.868 L458.018,526.183 L459.099,525.42 L460.088,524.583 L460.984,523.679 L461.781,522.714 L462.479,521.696 L463.075,520.634 L463.57,519.537 L463.965,518.413 L464.263,517.269 L464.467,516.112 L464.581,514.947 L464.607,513.78 L464.551,512.615 L464.415,511.454 L464.201,510.303 L463.914,509.162 L463.555,508.036 L463.127,506.927 L462.631,505.838 L462.069,504.771 L461.443,503.73 L460.754,502.717 L460.003,501.736 L459.191,500.789 L458.32,499.881 L457.39,499.014 L456.403,498.192 L455.361,497.42 L454.263,496.701 L453.113,496.039 L451.911,495.438 L450.66,494.904 L449.361,494.438 L448.017,494.047 L446.631,493.733 L445.205,493.501 L443.741,493.353 L442.244,493.295 L440.716,493.327 L439.159,493.454 L437.577,493.678 L435.972,494.001 L434.346,494.426 L432.702,494.954 L431.042,495.588 L429.366,496.329 L427.678,497.18 L425.977,498.143 L424.265,499.221 L422.574,500.391 L421.77,500.985 C420.105,502.216 419.753,504.564 420.985,506.23 C422.216,507.895 424.564,508.247 426.23,507.015 L426.23,507.015" fill="#1B325F"/>
    <path d="M470.717,509.171 L470.516,509.759 L470.12,510.972 L469.751,512.182 L469.416,513.371 L469.113,514.541 L468.843,515.69 L468.604,516.82 L468.397,517.931 L468.221,519.022 L468.076,520.094 L467.961,521.147 L467.876,522.181 L467.821,523.196 L467.795,524.192 L467.798,525.169 L467.831,526.128 L467.892,527.068 L467.981,527.989 L468.098,528.891 L468.243,529.775 L468.416,530.638 L468.615,531.483 L468.842,532.308 L469.094,533.112 L469.373,533.897 L469.678,534.661 L470.008,535.403 L470.362,536.124 L470.74,536.823 L471.142,537.5 L471.765,538.441 L472.674,539.627 L473.683,540.749 L474.765,541.773 L475.911,542.697 L477.115,543.521 L478.368,544.244 L479.663,544.868 L480.992,545.393 L482.349,545.821 L483.729,546.154 L485.124,546.394 L486.531,546.543 L487.944,546.603 L489.359,546.575 L490.77,546.461 L492.174,546.263 L493.567,545.981 L494.944,545.616 L496.301,545.17 L497.633,544.642 L498.937,544.034 L500.206,543.345 L501.438,542.575 L502.625,541.726 L503.764,540.796 L504.848,539.788 L505.872,538.7 L506.829,537.534 L507.714,536.292 L508.52,534.974 L509.241,533.583 L509.87,532.121 L510.402,530.592 L510.831,528.998 L511.089,527.729 L511.225,526.855 L511.327,525.999 L511.4,525.129 L511.443,524.247 L511.457,523.352 L511.441,522.444 L511.394,521.525 L511.315,520.594 L511.206,519.651 L511.065,518.698 L510.892,517.734 L510.687,516.76 L510.449,515.776 L510.178,514.781 L509.874,513.776 L509.536,512.762 L509.164,511.738 L508.758,510.704 L508.318,509.661 L507.842,508.608 L507.331,507.546 L506.784,506.474 L506.2,505.393 L505.58,504.303 L504.923,503.203 L504.229,502.094 L503.496,500.975 L503.105,500.397 L503.105,500.397 C501.944,498.682 499.612,498.234 497.897,499.395 C496.182,500.556 495.734,502.888 496.895,504.603 L497.224,505.088 L497.875,506.079 L498.487,507.054 L499.063,508.014 L499.603,508.96 L500.107,509.89 L500.576,510.805 L501.01,511.704 L501.412,512.587 L501.781,513.454 L502.118,514.306 L502.423,515.141 L502.699,515.96 L502.945,516.762 L503.162,517.549 L503.351,518.319 L503.512,519.073 L503.648,519.81 L503.758,520.531 L503.843,521.236 L503.904,521.925 L503.942,522.597 L503.958,523.255 L503.952,523.896 L503.924,524.522 L503.877,525.133 L503.81,525.729 L503.73,526.278 L503.577,527.091 L503.304,528.171 L502.964,529.197 L502.561,530.173 L502.099,531.099 L501.58,531.977 L501.007,532.807 L500.383,533.589 L499.71,534.324 L498.992,535.01 L498.231,535.648 L497.432,536.234 L496.598,536.77 L495.732,537.253 L494.84,537.682 L493.925,538.056 L492.992,538.375 L492.045,538.637 L491.09,538.841 L490.131,538.988 L489.174,539.077 L488.222,539.108 L487.28,539.08 L486.353,538.995 L485.444,538.853 L484.558,538.654 L483.699,538.398 L482.868,538.087 L482.068,537.721 L481.302,537.299 L480.571,536.82 L479.876,536.284 L479.218,535.689 L478.599,535.03 L478,534.272 L477.577,533.648 L477.323,533.23 L477.082,532.793 L476.852,532.337 L476.635,531.86 L476.432,531.362 L476.243,530.843 L476.068,530.302 L475.909,529.738 L475.767,529.152 L475.641,528.542 L475.533,527.908 L475.444,527.251 L475.375,526.569 L475.326,525.862 L475.298,525.13 L475.293,524.374 L475.31,523.592 L475.351,522.784 L475.417,521.952 L475.509,521.093 L475.626,520.209 L475.771,519.299 L475.944,518.363 L476.145,517.402 L476.375,516.415 L476.636,515.402 L476.927,514.363 L477.25,513.298 L477.611,512.19 L477.813,511.602 C478.484,509.642 477.44,507.51 475.48,506.839 C473.521,506.167 471.389,507.211 470.717,509.171 L470.717,509.171" fill="#1B325F"/>
    <path d="M520.007,505.482 L520.005,505.891 L520.016,506.815 L520.046,507.8 L520.095,508.822 L520.159,509.879 L520.238,510.97 L520.33,512.093 L520.434,513.244 L520.61,515.014 L520.873,517.451 L521.162,519.953 L521.466,522.486 L521.775,525.023 L522.079,527.534 L522.368,529.99 L522.632,532.36 L522.807,534.058 L522.911,535.143 L523.003,536.193 L523.083,537.199 L523.148,538.156 L523.198,539.059 L523.232,539.903 L523.249,540.681 L523.25,541.023 L523.25,541.023 C523.263,543.094 524.952,544.762 527.023,544.75 C529.094,544.737 530.762,543.049 530.75,540.977 C530.75,540.977 530.75,540.977 530.75,540.977 L530.747,540.514 L530.726,539.599 L530.686,538.641 L530.63,537.644 L530.559,536.607 L530.474,535.535 L530.377,534.429 L530.267,533.287 L530.086,531.529 L529.816,529.113 L529.524,526.633 L529.22,524.116 L528.913,521.593 L528.613,519.092 L528.33,516.644 L528.073,514.274 L527.904,512.568 L527.805,511.477 L527.718,510.427 L527.645,509.421 L527.586,508.464 L527.543,507.563 L527.515,506.722 L527.505,505.927 L527.507,505.518 C527.507,505.518 527.507,505.518 527.507,505.518 C527.517,503.446 525.845,501.76 523.774,501.75 C521.703,501.74 520.017,503.411 520.007,505.482 L520.007,505.482" fill="#1B325F"/>
    <path d="M540.166,504.044 L539.535,504.772 L538.318,506.179 L537.158,507.523 L536.055,508.804 L535.01,510.025 L534.02,511.188 L533.085,512.295 L532.204,513.347 L531.377,514.347 L530.601,515.297 L529.877,516.2 L529.203,517.057 L528.577,517.872 L527.999,518.648 L527.467,519.388 L526.98,520.096 L526.536,520.777 L526.133,521.435 L525.771,522.079 L525.447,522.715 L525.164,523.355 L524.922,524.011 L524.728,524.699 L524.594,525.433 L524.541,526.225 L524.601,527.074 L524.802,527.953 L525.159,528.812 L525.654,529.591 L526.242,530.248 L526.875,530.776 L527.517,531.189 L528.152,531.513 L528.778,531.77 L529.397,531.98 L530.014,532.155 L530.635,532.305 L531.266,532.438 L531.909,532.559 L532.57,532.671 L533.588,532.829 L534.669,532.985 L535.419,533.091 L536.189,533.2 L536.985,533.315 L537.805,533.437 L538.65,533.568 L539.521,533.709 L540.416,533.863 L541.337,534.03 L542.282,534.213 L543.252,534.413 L544.246,534.632 L545.264,534.871 L546.305,535.132 L547.37,535.416 L548.457,535.726 L549.567,536.062 L550.7,536.426 L551.853,536.821 L553.028,537.247 L554.224,537.706 L555.441,538.2 L556.04,538.454 L556.04,538.454 C557.947,539.26 560.148,538.368 560.954,536.46 C561.76,534.553 560.868,532.352 558.96,531.546 L558.26,531.25 L556.91,530.703 L555.581,530.195 L554.276,529.723 L552.995,529.286 L551.738,528.883 L550.507,528.511 L549.302,528.169 L548.125,527.856 L546.975,527.569 L545.855,527.307 L544.765,527.067 L543.706,526.849 L542.678,526.651 L541.683,526.47 L540.722,526.306 L539.797,526.156 L538.907,526.018 L538.055,525.892 L537.241,525.774 L536.468,525.665 L535.741,525.562 L534.733,525.417 L533.819,525.276 L533.28,525.185 L532.797,525.096 L532.374,525.01 L532.017,524.927 L531.732,524.852 L531.527,524.792 L531.407,524.755 L531.377,524.759 L531.435,524.821 L531.565,524.965 L531.735,525.201 L531.897,525.518 L532.007,525.872 L532.049,526.2 L532.038,526.446 L532.005,526.582 L531.982,526.604 L531.99,526.518 L532.045,526.338 L532.153,526.074 L532.318,525.737 L532.541,525.333 L532.822,524.867 L533.162,524.343 L533.56,523.762 L534.015,523.127 L534.528,522.437 L535.099,521.692 L535.727,520.893 L536.412,520.039 L537.155,519.128 L537.956,518.161 L538.814,517.135 L539.731,516.049 L540.707,514.903 L541.741,513.695 L542.835,512.424 L543.989,511.087 L545.204,509.683 L545.834,508.956 C547.19,507.391 547.021,505.022 545.456,503.666 C543.891,502.31 541.522,502.479 540.166,504.044 L540.166,504.044" fill="#1B325F"/>
    <path d="M564.565,498.849 L564.569,499.107 L564.602,499.839 L564.666,500.67 L564.756,501.57 L564.868,502.545 L565.001,503.595 L565.154,504.717 L565.323,505.906 L565.508,507.155 L565.707,508.459 L565.918,509.81 L566.139,511.201 L566.484,513.344 L566.964,516.275 L567.45,519.233 L567.927,522.153 L568.27,524.279 L568.488,525.651 L568.695,526.979 L568.89,528.255 L569.07,529.468 L569.233,530.612 L569.377,531.677 L569.501,532.653 L569.602,533.53 L569.679,534.296 L569.729,534.935 L569.747,535.302 L569.75,535.478 L569.75,535.528 L569.75,535.528 C569.766,537.599 571.457,539.266 573.528,539.25 C575.599,539.234 577.266,537.543 577.25,535.472 L577.248,535.272 L577.236,534.903 L577.205,534.341 L577.141,533.546 L577.053,532.668 L576.941,531.708 L576.809,530.667 L576.657,529.552 L576.488,528.369 L576.304,527.124 L576.105,525.823 L575.895,524.475 L575.674,523.085 L575.329,520.942 L574.85,518.016 L574.365,515.065 L573.889,512.15 L573.546,510.025 L573.328,508.654 L573.121,507.328 L572.927,506.056 L572.748,504.846 L572.585,503.708 L572.442,502.65 L572.318,501.684 L572.218,500.821 L572.143,500.077 L572.093,499.475 L572.068,498.998 L572.064,498.74 C572.064,498.74 572.064,498.74 572.064,498.74 C572.034,496.669 570.331,495.015 568.26,495.045 C566.189,495.075 564.535,496.779 564.565,498.849 L564.565,498.849" fill="#1B325F"/>
    <path d="M572.104,501.084 L572.815,500.865 L574.166,500.478 L575.495,500.135 L576.828,499.827 L578.855,499.421 L581.566,498.989 L584.279,498.672 L587.023,498.452 L589.8,498.317 L592.616,498.257 L594.019,498.25 L594.019,498.25 C596.09,498.239 597.76,496.552 597.75,494.481 C597.74,492.41 596.052,490.74 593.981,490.75 L592.45,490.758 L589.433,490.826 L586.417,490.976 L583.399,491.224 L580.379,491.584 L577.377,492.068 L575.129,492.522 L573.615,492.875 L572.1,493.269 L570.607,493.697 L569.896,493.916 C569.896,493.916 569.896,493.916 569.896,493.916 C567.917,494.526 566.806,496.625 567.416,498.604 C568.026,500.583 570.125,501.694 572.104,501.084 L572.104,501.084" fill="#1B325F"/>
    <path d="M577.494,521.439 L578.109,521.172 L579.114,520.812 L580.016,520.575 L580.894,520.417 L581.755,520.328 L582.61,520.301 L583.464,520.327 L584.323,520.403 L585.192,520.522 L586.072,520.68 L587.442,520.98 L589.281,521.446 L590.683,521.807 L591.665,522.044 L592.187,522.161 L592.187,522.161 C594.209,522.61 596.212,521.335 596.661,519.313 C597.11,517.291 595.835,515.288 593.813,514.839 C593.813,514.839 593.813,514.839 593.813,514.839 L593.422,514.753 L592.554,514.544 L591.114,514.173 L589.034,513.651 L587.366,513.292 L586.171,513.086 L584.924,512.927 L583.627,512.829 L582.282,512.808 L580.894,512.878 L579.469,513.054 L578.015,513.347 L576.54,513.768 L575.121,514.293 L574.506,514.561 C574.506,514.561 574.506,514.561 574.506,514.561 C572.606,515.386 571.735,517.595 572.561,519.494 C573.386,521.394 575.595,522.265 577.494,521.439 L577.494,521.439" fill="#1B325F"/>
    <path d="M579.213,540.682 L580.783,540.378 L583.903,539.81 L587.041,539.28 L590.204,538.779 L594.983,538.068 L601.356,537.162 L604.526,536.713 L604.526,536.713 C606.577,536.422 608.004,534.524 607.713,532.474 C607.422,530.423 605.524,528.996 603.474,529.287 L600.301,529.737 L593.879,530.65 L589.031,531.372 L585.792,531.885 L582.559,532.431 L579.356,533.014 L577.787,533.318 C575.754,533.712 574.425,535.68 574.818,537.713 C575.212,539.746 577.18,541.075 579.213,540.682 L579.213,540.682" fill="#1B325F"/>
  </g>
</svg>
